<?xml version="1.0" encoding="UTF-8" standalone="no"?>
<!DOCTYPE svg PUBLIC "-//W3C//DTD SVG 1.1//EN" "http://www.w3.org/Graphics/SVG/1.1/DTD/svg11.dtd">
<svg xmlns="http://www.w3.org/2000/svg" version="1.1" viewBox="0.00 0.00 960.00 308.00">
<path fill="#ffffff" d="
  M 439.17 190.99
  Q 438.72 190.91 438.25 190.90
  Q 420.89 190.81 402.77 191.41
  Q 395.35 191.65 376.41 189.55
  C 369.92 188.83 364.68 189.82 359.76 184.34
  C 358.37 182.80 359.08 178.81 359.45 176.82
  A 1.42 1.39 -57.3 0 0 359.23 175.76
  L 358.43 174.59
  A 1.08 1.07 39.1 0 0 356.55 174.78
  Q 354.13 180.56 351.88 187.23
  C 350.35 191.75 348.14 195.28 345.32 199.01
  C 344.22 200.46 343.27 201.71 341.31 202.04
  Q 333.71 203.31 331.01 196.42
  Q 328.46 189.91 326.65 182.59
  C 325.46 177.77 323.45 173.38 321.49 168.85
  A 1.42 1.42 0.0 0 0 319.46 168.19
  C 314.10 171.42 309.97 177.25 306.24 182.15
  C 301.95 187.77 296.00 191.97 290.39 196.35
  Q 284.94 200.59 277.78 200.00
  C 271.67 199.50 270.18 191.51 271.43 186.84
  Q 272.13 184.24 273.23 181.66
  A 4.42 4.37 49.3 0 0 273.43 178.78
  Q 272.41 175.01 271.95 171.25
  A 1.76 1.75 79.4 0 0 269.77 169.75
  Q 267.15 170.42 265.73 172.92
  C 263.51 176.83 261.38 180.48 257.92 183.49
  C 251.57 189.02 245.01 194.25 237.05 196.97
  Q 231.99 198.71 227.23 200.10
  Q 221.13 201.89 213.74 202.12
  Q 196.14 202.67 181.92 198.94
  Q 178.37 198.01 173.30 195.63
  C 167.68 192.98 164.62 187.51 168.86 181.96
  C 171.95 177.92 176.62 176.62 181.51 175.14
  Q 195.36 170.95 204.30 170.50
  Q 217.78 169.82 231.16 168.01
  Q 238.63 166.99 245.73 166.54
  Q 253.19 166.05 260.37 165.68
  C 261.70 165.60 263.02 164.28 263.58 163.16
  Q 269.24 151.74 269.41 141.68
  Q 269.52 135.36 264.39 132.49
  C 261.50 130.87 258.94 129.93 255.59 129.91
  Q 249.42 129.87 244.65 130.44
  Q 231.52 132.02 217.72 133.78
  Q 212.03 134.51 209.18 133.14
  Q 204.43 130.85 203.92 125.23
  C 203.58 121.56 205.61 117.52 207.64 114.33
  Q 214.22 103.99 219.19 94.74
  C 220.66 91.99 223.35 86.84 220.92 84.19
  C 217.70 80.68 212.47 80.30 207.94 80.13
  Q 182.71 79.21 157.31 83.79
  Q 152.01 84.74 146.70 85.80
  C 138.22 87.49 130.40 90.66 122.23 94.06
  Q 111.71 98.44 101.62 107.18
  Q 97.74 110.55 95.45 113.87
  Q 90.66 120.80 86.76 128.41
  C 84.01 133.78 83.32 139.29 82.68 145.03
  Q 79.59 172.58 97.99 193.99
  Q 110.30 208.30 121.56 217.99
  Q 123.61 219.76 123.11 222.51
  Q 123.02 222.99 122.72 223.36
  Q 120.71 225.88 118.16 223.88
  Q 106.45 214.74 98.72 208.16
  Q 93.45 203.67 89.11 197.85
  Q 82.71 189.27 78.79 180.88
  Q 76.49 175.97 74.76 166.62
  Q 73.16 157.97 74.43 150.18
  Q 75.59 143.14 76.66 136.67
  Q 77.57 131.24 80.19 126.56
  Q 83.99 119.79 88.09 112.98
  C 93.14 104.59 101.39 98.53 109.61 93.18
  Q 114.83 89.78 122.10 87.19
  C 131.73 83.75 140.78 80.21 151.14 78.82
  C 158.63 77.81 165.89 76.12 173.61 75.30
  Q 187.86 73.79 202.87 73.17
  Q 212.80 72.76 219.89 74.61
  C 224.14 75.72 229.44 79.05 230.11 83.87
  C 230.87 89.34 229.66 94.26 226.54 98.98
  C 224.54 102.01 223.00 105.26 220.93 108.25
  Q 216.45 114.76 212.13 122.29
  A 1.48 1.48 0.0 0 0 213.56 124.49
  Q 225.93 123.23 239.75 121.77
  Q 242.74 121.46 248.77 121.65
  Q 253.91 121.81 258.22 122.12
  C 261.98 122.39 269.65 125.29 272.67 128.62
  Q 276.13 132.43 277.41 138.63
  Q 278.14 142.22 276.82 147.75
  Q 275.74 152.24 274.48 156.75
  Q 273.91 158.79 275.33 157.22
  C 277.46 154.88 279.63 152.39 282.73 151.43
  Q 292.60 148.35 301.50 150.72
  Q 308.57 152.61 313.58 159.73
  Q 313.90 160.19 314.37 159.90
  C 318.67 157.32 323.08 157.18 327.22 160.10
  Q 329.83 161.93 332.00 167.01
  Q 336.01 176.38 337.66 184.75
  C 337.91 186.04 338.59 187.29 339.17 188.48
  Q 339.77 189.72 340.32 188.45
  Q 344.15 179.49 347.65 170.81
  Q 348.54 168.61 350.33 165.74
  Q 353.15 161.22 358.78 162.00
  C 363.33 162.63 364.13 166.33 367.25 168.72
  Q 367.79 169.13 368.37 168.77
  Q 376.25 163.75 385.45 160.83
  Q 398.83 156.57 411.09 152.15
  Q 414.34 150.98 415.05 154.37
  L 415.21 155.14
  Q 415.66 157.31 413.61 158.14
  C 408.50 160.22 403.24 162.19 398.44 164.68
  C 393.61 167.19 388.78 169.92 383.72 171.89
  Q 381.26 172.85 378.83 173.83
  Q 377.43 174.40 378.64 175.30
  Q 378.90 175.50 380.01 175.93
  Q 396.37 182.33 413.84 182.87
  Q 433.49 183.47 453.02 184.17
  Q 458.35 184.36 464.25 184.97
  Q 466.70 185.22 469.21 184.89
  A 0.37 0.36 81.4 0 0 469.51 184.47
  Q 468.75 180.42 468.51 176.35
  Q 467.68 162.04 467.06 146.73
  Q 466.96 144.36 469.29 143.94
  Q 470.89 143.66 472.42 145.18
  A 2.80 2.77 -70.6 0 1 473.22 146.87
  Q 474.37 158.07 475.93 165.44
  Q 476.63 168.76 477.33 165.44
  Q 478.90 158.02 480.77 150.47
  C 481.63 146.98 482.85 142.62 485.78 140.34
  C 488.53 138.21 493.26 136.68 496.40 139.00
  Q 504.17 144.74 507.45 150.93
  Q 510.60 156.86 514.14 162.97
  A 0.22 0.22 0.0 0 0 514.53 162.96
  C 515.88 160.37 516.95 157.58 518.99 155.42
  C 526.05 147.92 534.19 153.55 539.18 159.93
  Q 542.09 163.65 544.95 167.70
  Q 545.81 168.93 547.25 168.53
  Q 552.00 167.21 557.05 166.90
  Q 557.92 166.85 557.92 165.98
  C 557.97 160.47 561.15 153.31 567.34 152.59
  Q 571.18 152.14 574.77 153.59
  Q 581.19 156.19 587.47 160.26
  A 3.02 3.01 56.9 0 0 589.58 160.71
  L 626.22 154.80
  Q 626.86 154.70 626.59 154.12
  Q 625.10 150.78 624.94 147.24
  C 624.59 139.11 631.72 134.25 639.29 134.64
  Q 646.29 134.99 650.51 136.83
  Q 657.00 139.66 664.42 144.69
  Q 664.94 145.04 665.25 144.49
  Q 667.27 140.80 669.24 136.84
  C 670.76 133.80 675.06 130.58 678.47 132.70
  C 681.93 134.86 682.38 138.74 681.96 142.46
  A 1.57 1.57 0.0 0 0 683.80 144.18
  L 708.06 139.89
  Q 708.66 139.78 708.83 139.20
  L 709.39 137.33
  Q 709.57 136.74 710.12 136.45
  Q 712.04 135.46 713.80 136.42
  Q 714.20 136.64 714.43 137.04
  L 715.34 138.65
  Q 715.63 139.16 716.16 138.91
  Q 717.21 138.40 718.52 138.15
  Q 724.10 137.09 733.28 135.76
  Q 737.75 135.10 740.40 134.32
  Q 743.87 133.31 747.45 132.90
  Q 754.38 132.13 761.14 131.18
  Q 761.57 131.12 761.89 131.41
  Q 762.21 131.71 762.14 132.16
  A 0.37 0.36 78.8 0 0 762.69 132.53
  Q 763.06 132.30 762.96 131.86
  Q 762.81 131.17 763.50 131.06
  L 764.94 130.83
  Q 765.22 130.79 765.17 131.07
  Q 765.08 131.56 765.18 132.04
  Q 765.30 132.65 764.70 132.81
  C 763.78 133.05 763.09 132.85 762.18 133.21
  Q 759.17 134.41 755.73 134.52
  Q 753.88 134.59 752.29 135.15
  Q 750.91 135.65 749.63 135.48
  Q 749.02 135.39 749.00 136.02
  Q 748.83 141.11 747.24 145.85
  Q 744.58 153.76 741.94 161.78
  C 739.64 168.78 736.76 175.63 733.14 181.42
  Q 730.57 185.55 725.58 185.94
  C 718.31 186.51 713.78 173.17 712.72 167.45
  Q 710.92 157.78 709.89 145.15
  Q 709.69 142.64 707.21 143.06
  L 684.02 147.03
  A 1.37 1.36 82.4 0 0 682.89 148.52
  Q 683.81 157.65 685.39 165.95
  Q 687.28 175.89 691.55 181.66
  C 697.51 189.71 707.60 194.82 717.82 195.04
  Q 723.75 195.18 729.77 195.14
  C 732.90 195.11 732.38 199.96 731.62 201.66
  C 730.62 203.93 726.64 204.07 724.51 204.00
  Q 719.19 203.82 712.91 203.22
  Q 708.50 202.80 703.36 200.90
  Q 698.55 199.12 694.08 196.99
  C 686.34 193.29 682.01 186.13 678.08 178.13
  A 0.39 0.38 42.2 0 0 677.37 178.16
  C 675.10 184.43 669.21 187.04 663.53 189.83
  C 658.02 192.54 651.17 192.62 645.31 191.91
  C 642.01 191.51 638.88 189.87 636.86 187.15
  A 0.35 0.35 0.0 0 0 636.25 187.24
  C 635.00 190.71 631.82 190.14 628.88 188.92
  Q 621.60 185.90 613.77 182.88
  Q 599.61 177.42 579.10 167.67
  Q 578.63 167.45 578.12 167.53
  L 568.55 169.02
  Q 567.90 169.12 567.93 169.78
  C 568.28 176.63 568.21 183.82 564.86 189.95
  C 560.66 197.64 552.86 192.97 549.02 188.26
  Q 543.87 181.94 538.67 175.25
  A 0.51 0.51 0.0 0 0 538.13 175.07
  C 530.10 177.20 520.63 178.92 514.30 180.35
  Q 499.67 183.65 484.97 186.68
  A 1.13 1.13 0.0 0 0 484.07 187.75
  C 483.96 190.35 483.04 194.90 480.06 195.85
  Q 475.59 197.28 472.91 193.22
  A 0.95 0.95 0.0 0 0 471.22 193.44
  Q 469.85 197.43 465.06 199.76
  Q 456.06 204.14 445.05 208.38
  C 437.64 211.24 430.00 212.76 422.48 214.58
  Q 415.65 216.23 407.16 218.95
  Q 396.96 222.21 391.87 223.38
  Q 373.81 227.51 354.98 232.29
  C 349.79 233.61 344.89 234.37 339.70 233.93
  C 337.49 233.74 335.21 231.73 336.29 229.31
  C 338.06 225.36 342.62 221.39 346.47 219.52
  Q 361.48 212.22 377.28 208.36
  C 397.42 203.45 418.61 196.57 439.19 191.71
  Q 440.94 191.30 439.17 190.99
  Z
  M 725.83 175.88
  C 727.85 170.81 730.71 166.11 732.61 160.93
  Q 736.75 149.63 740.59 137.89
  Q 740.74 137.44 740.27 137.52
  L 716.81 141.25
  Q 715.86 141.40 716.00 142.36
  Q 717.13 149.67 719.13 155.68
  C 720.72 160.45 721.54 165.49 722.86 170.25
  Q 723.63 173.02 725.55 175.91
  A 0.16 0.16 0.0 0 0 725.83 175.88
  Z
  M 643.39 151.59
  C 647.24 150.62 651.13 150.64 654.96 149.44
  A 0.45 0.44 51.4 0 0 655.05 148.63
  C 651.79 146.75 646.63 143.41 642.74 143.92
  Q 642.25 143.99 642.38 144.46
  Q 643.23 147.59 642.89 151.16
  A 0.41 0.40 85.4 0 0 643.39 151.59
  Z
  M 636.79 144.48
  Q 634.19 145.13 635.03 148.40
  Q 635.23 149.15 635.89 148.73
  Q 636.59 148.27 636.80 147.45
  Q 637.17 145.97 637.72 144.62
  Q 637.93 144.09 637.37 144.16
  Q 637.22 144.18 637.11 144.29
  Q 636.97 144.43 636.79 144.48
  Z
  M 495.91 179.43
  Q 512.54 175.88 532.25 171.68
  Q 533.60 171.39 534.54 170.76
  A 0.49 0.48 -39.2 0 0 534.62 170.01
  L 527.94 163.38
  A 1.47 1.47 0.0 0 0 525.50 163.99
  C 524.37 167.60 520.85 173.86 516.29 174.02
  C 511.36 174.20 507.90 171.42 505.86 167.64
  Q 499.65 156.11 492.54 148.48
  Q 492.20 148.12 491.87 148.49
  Q 490.80 149.65 490.46 151.20
  C 489.14 157.22 487.61 163.09 486.94 169.32
  Q 486.33 175.02 484.85 180.57
  Q 484.54 181.77 485.75 181.53
  Q 490.50 180.58 495.91 179.43
  Z
  M 644.06 159.64
  C 652.48 164.18 656.95 161.70 660.71 153.68
  Q 660.96 153.15 660.49 152.79
  Q 658.85 151.54 656.72 151.88
  Q 650.38 152.87 643.40 154.61
  A 2.14 2.14 0.0 0 0 641.78 156.55
  C 641.66 158.26 642.78 158.94 644.06 159.64
  Z
  M 631.36 172.42
  Q 631.17 171.55 631.29 170.67
  L 632.49 161.67
  Q 632.56 161.11 632.18 160.71
  L 629.21 157.59
  Q 628.78 157.13 628.16 157.25
  Q 616.76 159.54 603.75 162.30
  C 601.88 162.70 597.72 162.73 596.26 164.02
  A 0.42 0.41 35.7 0 0 596.38 164.70
  Q 603.07 167.54 610.02 170.85
  Q 619.11 175.18 632.01 180.04
  A 0.67 0.66 3.7 0 0 632.90 179.27
  L 631.36 172.42
  Z
  M 284.41 162.73
  C 284.96 162.84 285.53 162.82 286.06 162.99
  Q 286.30 163.07 286.55 163.04
  Q 293.60 162.12 301.37 161.70
  Q 302.30 161.65 301.47 161.22
  Q 297.29 159.03 294.77 159.29
  Q 290.94 159.69 287.53 160.18
  Q 285.78 160.44 284.22 162.13
  Q 283.78 162.61 284.41 162.73
  Z
  M 654.08 182.96
  C 660.43 182.08 671.18 177.66 670.32 169.67
  Q 669.89 165.72 667.76 161.38
  A 0.45 0.45 0.0 0 0 667.02 161.28
  C 662.89 165.93 659.06 169.85 652.68 170.71
  C 649.29 171.17 645.97 169.46 642.63 168.98
  Q 640.82 168.72 640.94 170.54
  Q 641.14 173.84 642.30 177.50
  C 643.79 182.21 649.72 183.57 654.08 182.96
  Z
  M 287.75 168.15
  Q 286.97 168.18 286.99 168.96
  C 287.09 172.59 281.99 178.06 287.43 180.38
  C 288.99 181.05 291.01 180.10 292.20 179.09
  Q 295.73 176.07 299.70 172.87
  Q 302.10 170.92 303.32 168.58
  Q 304.46 166.37 302.01 166.78
  Q 295.10 167.94 287.75 168.15
  Z
  M 206.12 178.57
  Q 190.00 181.96 180.23 185.10
  Q 178.24 185.74 176.46 187.39
  Q 176.10 187.72 176.53 187.95
  Q 178.66 189.07 180.74 190.46
  Q 183.16 192.07 189.49 193.30
  Q 195.47 194.47 197.85 194.64
  Q 209.18 195.46 218.41 194.58
  Q 225.93 193.87 236.02 189.75
  C 243.62 186.64 250.65 180.53 256.03 174.49
  Q 257.06 173.34 257.72 171.91
  Q 257.99 171.33 257.36 171.18
  Q 256.04 170.89 254.79 171.17
  Q 253.75 171.40 252.58 171.56
  Q 243.06 172.84 233.46 174.03
  Q 219.41 175.78 206.12 178.57
  Z
  M 556.04 181.75
  A 0.60 0.60 0.0 0 0 556.98 181.74
  L 557.88 180.57
  A 0.60 0.60 0.0 0 0 558.00 180.21
  L 558.05 171.94
  A 0.60 0.60 0.0 0 0 557.32 171.35
  L 549.82 172.90
  A 0.60 0.60 0.0 0 0 549.48 173.87
  L 556.04 181.75
  Z
  M 455.92 194.21
  Q 455.76 193.93 455.44 194.01
  Q 416.37 204.11 385.44 213.45
  Q 368.45 218.58 352.81 225.46
  Q 351.06 226.23 349.54 227.37
  Q 348.66 228.02 349.72 227.77
  Q 379.36 220.94 408.77 211.76
  C 419.86 208.30 431.21 204.17 442.22 200.08
  Q 448.22 197.85 456.01 194.54
  Q 456.09 194.50 456.05 194.43
  L 455.92 194.21
  Z"
/>
<path fill="#ffffff" d="
  M 875.60 112.24
  Q 876.38 110.90 877.87 111.44
  Q 878.31 111.60 878.75 111.46
  Q 883.95 109.85 889.45 108.31
  C 892.71 107.39 891.61 103.66 896.55 103.89
  C 904.48 104.27 901.16 117.87 893.04 112.69
  Q 891.54 111.74 889.72 112.03
  Q 884.91 112.81 880.63 113.52
  C 879.67 113.68 878.69 113.29 877.88 113.72
  Q 877.28 114.03 876.64 114.15
  Q 849.83 119.03 820.52 123.76
  Q 793.73 128.08 766.89 132.58
  Q 766.01 132.73 765.77 131.87
  L 765.62 131.36
  A 0.87 0.87 0.0 0 1 766.29 130.27
  Q 777.32 128.22 786.64 126.63
  Q 829.29 119.36 870.71 112.37
  C 871.30 112.27 871.75 112.42 872.34 112.44
  Q 873.03 112.46 873.62 112.10
  Q 874.63 111.48 875.36 112.26
  Q 875.50 112.41 875.60 112.24
  Z"
/>
</svg>
