<?xml version="1.0" encoding="UTF-8" standalone="no"?>
<!DOCTYPE svg PUBLIC "-//W3C//DTD SVG 1.1//EN" "http://www.w3.org/Graphics/SVG/1.1/DTD/svg11.dtd">
<svg xmlns="http://www.w3.org/2000/svg" version="1.1" viewBox="0.00 0.00 960.00 308.00">
<path fill="#000000" d="
  M 627.25 156.01
  Q 627.07 157.43 625.83 157.59
  A 0.74 0.73 -25.0 0 1 625.22 157.37
  Q 625.13 157.27 625.07 157.15
  Q 624.70 156.44 624.35 157.16
  Q 623.74 158.43 622.41 157.85
  Q 621.89 157.62 621.51 158.04
  L 621.29 158.28
  Q 620.79 158.83 620.19 158.38
  Q 619.73 158.03 619.26 158.50
  Q 619.02 158.74 618.67 158.81
  L 594.40 163.69
  Q 593.79 163.81 594.35 164.09
  Q 613.23 173.51 632.94 180.82
  Q 633.72 181.11 633.47 180.32
  C 631.30 173.63 631.51 168.46 633.01 161.76
  Q 633.17 161.04 632.66 160.52
  L 629.85 157.62
  Q 629.39 157.14 628.73 157.04
  Q 627.84 156.89 627.25 156.01
  L 627.36 155.12
  Q 627.42 154.63 627.21 154.20
  Q 624.54 148.75 626.06 142.74
  Q 626.24 142.02 627.61 140.11
  Q 628.25 139.21 629.18 138.66
  C 630.07 138.12 630.51 137.32 631.49 136.73
  Q 633.90 135.28 636.32 135.12
  Q 644.53 134.59 652.42 138.24
  Q 659.54 141.53 664.70 145.84
  Q 665.15 146.23 665.40 145.68
  Q 668.19 139.44 671.27 134.72
  Q 672.73 132.50 676.23 132.52
  Q 678.65 132.54 680.26 135.03
  C 682.03 137.79 682.04 140.57 682.02 143.73
  Q 682.02 144.93 683.21 144.73
  L 708.76 140.26
  A 0.41 0.40 80.0 0 0 709.08 139.79
  C 708.33 135.81 714.42 134.85 714.88 138.77
  Q 714.94 139.26 715.43 139.18
  L 735.99 135.84
  A 0.45 0.41 16.2 0 0 736.24 135.72
  Q 736.71 135.28 737.06 135.74
  Q 737.46 136.26 737.85 135.74
  Q 738.42 135.00 739.26 135.39
  Q 739.76 135.63 740.14 135.22
  Q 740.65 134.67 741.41 134.86
  Q 742.02 135.01 742.48 134.58
  C 744.69 132.53 746.75 133.74 749.29 133.90
  Q 749.69 133.93 749.88 133.58
  Q 750.10 133.16 750.87 133.35
  A 0.75 0.75 0.0 0 1 751.43 134.18
  Q 751.34 134.80 750.86 135.20
  Q 750.45 135.53 750.16 135.10
  Q 750.02 134.90 749.83 134.75
  Q 748.76 133.86 748.86 135.25
  Q 749.10 138.43 747.93 141.99
  Q 744.55 152.32 740.93 163.39
  Q 739.58 167.51 737.89 170.96
  Q 735.88 175.07 733.96 179.18
  Q 731.59 184.25 726.75 185.36
  C 723.09 186.20 720.40 183.85 718.60 180.99
  Q 713.89 173.52 712.46 162.98
  Q 711.12 153.01 709.89 142.97
  A 0.80 0.80 0.0 0 0 708.96 142.28
  L 683.22 146.70
  A 0.95 0.95 0.0 0 0 682.44 147.79
  Q 683.05 151.45 683.29 155.48
  Q 683.50 158.98 684.38 163.18
  Q 686.33 172.45 688.18 176.85
  Q 690.08 181.37 695.10 186.47
  C 697.72 189.12 701.32 190.55 704.55 192.37
  Q 707.84 194.23 712.13 194.80
  Q 717.01 195.44 721.31 195.80
  Q 723.90 196.02 726.50 195.30
  C 732.53 193.64 734.20 202.40 728.65 203.15
  C 723.14 203.90 717.68 203.05 712.10 202.63
  Q 708.09 202.33 704.51 200.86
  Q 699.23 198.69 694.22 196.64
  Q 691.14 195.39 688.73 192.99
  Q 683.19 187.46 679.47 180.16
  Q 678.65 178.56 678.34 176.86
  Q 678.15 175.83 677.73 176.79
  C 676.25 180.25 674.66 182.95 671.26 184.96
  C 667.41 187.25 662.92 190.68 658.20 191.09
  Q 654.02 191.45 649.98 191.92
  C 644.77 192.54 640.39 190.26 636.75 186.75
  Q 636.34 186.36 636.10 186.86
  C 634.79 189.53 632.28 190.16 629.73 188.95
  Q 621.84 185.21 613.41 182.16
  C 610.90 181.25 608.51 179.94 605.99 179.01
  Q 592.82 174.17 579.60 167.08
  A 2.18 2.12 52.8 0 0 578.20 166.87
  L 567.94 168.86
  Q 567.40 168.97 567.36 169.52
  Q 567.03 173.76 567.24 178.31
  C 567.41 182.12 565.64 191.52 560.92 193.05
  C 556.52 194.47 552.77 192.03 550.13 188.74
  Q 544.83 182.14 539.03 175.18
  A 1.03 1.02 63.6 0 0 538.03 174.84
  L 488.22 185.47
  A 0.24 0.22 -77.8 0 0 488.09 185.56
  Q 487.81 185.94 487.41 185.92
  Q 485.98 185.83 484.61 186.60
  Q 484.14 186.87 484.02 187.40
  C 483.22 191.08 482.03 196.66 477.00 195.63
  Q 472.54 194.71 472.06 189.84
  A 0.05 0.05 0.0 0 0 472.00 189.79
  L 471.73 189.81
  Q 471.44 189.84 471.45 190.13
  Q 471.62 194.71 467.43 197.62
  C 463.15 200.58 459.44 201.90 453.04 204.62
  Q 437.83 211.06 419.90 214.61
  Q 416.72 215.24 413.72 216.26
  Q 395.75 222.38 378.35 225.95
  Q 371.61 227.33 365.18 229.15
  C 356.90 231.49 348.46 233.85 340.19 233.77
  Q 337.75 233.75 336.60 231.37
  Q 336.33 230.79 336.51 230.18
  Q 337.26 227.62 339.30 225.75
  Q 340.25 224.89 341.10 223.96
  Q 343.02 221.88 345.19 220.84
  C 354.78 216.24 365.05 211.85 374.90 209.54
  Q 386.66 206.79 394.14 204.59
  Q 420.11 196.95 441.56 191.47
  Q 445.34 190.51 441.44 190.57
  Q 437.71 190.64 433.86 190.51
  Q 429.86 190.38 426.19 190.45
  Q 416.74 190.61 407.95 190.29
  C 406.34 190.23 405.47 191.17 403.94 191.17
  C 400.95 191.17 398.27 190.01 395.23 190.18
  Q 387.23 190.62 380.49 189.51
  C 376.16 188.79 371.83 189.15 367.59 188.33
  C 362.35 187.33 356.57 182.46 360.01 176.70
  Q 360.48 175.90 359.78 175.29
  L 357.46 173.28
  A 0.61 0.61 0.0 0 0 356.49 173.52
  Q 353.46 181.35 350.71 188.89
  Q 349.26 192.88 344.65 198.83
  Q 340.14 204.64 333.93 200.04
  Q 331.99 198.61 331.17 195.75
  C 329.86 191.16 327.99 186.63 326.97 182.06
  C 325.95 177.46 323.88 173.40 322.22 169.09
  A 2.33 2.33 0.0 0 0 318.61 168.10
  C 316.39 169.83 313.93 171.36 312.20 173.61
  Q 308.02 179.04 303.80 184.27
  C 300.63 188.21 296.20 190.45 292.53 193.80
  Q 290.27 195.85 287.57 197.42
  Q 284.10 199.44 280.44 199.83
  Q 278.27 200.07 275.63 198.88
  Q 273.88 198.10 272.82 195.96
  Q 270.82 191.93 271.51 188.48
  C 272.06 185.72 273.42 183.13 274.50 180.44
  Q 274.71 179.92 274.45 179.42
  C 272.82 176.34 272.68 173.12 272.55 169.71
  Q 272.53 168.98 271.82 169.15
  Q 270.32 169.52 268.79 169.56
  A 2.85 2.84 -76.8 0 0 266.34 171.08
  Q 262.55 178.29 258.10 182.37
  Q 253.52 186.57 246.72 191.60
  C 244.86 192.97 242.49 194.30 240.33 195.07
  Q 233.51 197.49 226.49 199.78
  Q 222.54 201.06 217.99 201.18
  Q 212.09 201.32 205.82 201.74
  Q 203.31 201.90 200.33 201.49
  Q 193.31 200.51 185.96 199.32
  C 180.63 198.46 163.52 193.29 167.82 184.70
  C 170.02 180.31 174.24 177.80 178.92 176.43
  Q 185.36 174.55 191.75 172.89
  C 199.40 170.90 207.10 170.90 215.03 170.39
  Q 219.17 170.12 224.89 169.29
  Q 241.03 166.96 257.17 166.37
  Q 258.01 166.34 258.77 165.98
  Q 259.25 165.75 259.76 165.87
  C 260.96 166.15 262.33 165.68 263.04 164.62
  Q 266.82 158.99 268.23 152.21
  Q 268.90 148.98 269.60 145.76
  C 270.48 141.69 269.77 138.59 267.94 135.01
  Q 267.06 133.29 265.28 132.39
  Q 259.75 129.61 256.06 129.36
  Q 252.02 129.09 246.78 129.65
  Q 235.36 130.89 223.75 132.68
  Q 221.94 132.96 216.58 133.33
  Q 212.13 133.64 209.46 132.66
  Q 206.32 131.51 204.97 128.14
  C 203.15 123.59 205.63 117.73 208.43 114.06
  Q 210.12 111.85 211.44 109.20
  C 213.39 105.30 216.06 101.98 217.98 98.03
  C 220.17 93.55 222.48 90.50 222.00 84.82
  A 1.47 1.46 16.4 0 0 221.42 83.76
  C 218.64 81.66 217.15 80.35 213.14 80.14
  C 208.61 79.90 204.00 79.14 199.54 79.23
  Q 171.87 79.80 144.76 85.75
  Q 138.68 87.09 132.89 89.38
  Q 126.85 91.77 120.78 94.08
  Q 116.77 95.60 113.19 97.95
  Q 105.87 102.75 99.91 108.18
  Q 95.92 111.80 93.12 116.42
  Q 89.63 122.17 86.52 128.18
  Q 84.27 132.52 83.33 137.40
  Q 79.76 155.86 85.07 172.93
  Q 86.71 178.21 89.84 183.29
  C 93.78 189.69 97.24 194.70 102.55 199.56
  C 105.95 202.66 108.39 206.50 111.55 209.70
  Q 113.54 211.71 121.76 218.92
  Q 123.75 220.67 122.37 222.94
  Q 122.15 223.30 121.81 223.53
  Q 119.93 224.81 118.20 223.34
  Q 110.54 216.83 103.08 211.18
  Q 100.29 209.07 97.15 206.00
  C 94.52 203.43 91.81 201.00 89.75 197.98
  Q 84.53 190.30 79.78 182.03
  Q 78.64 180.06 77.56 176.00
  Q 74.66 165.16 74.16 158.85
  Q 73.77 153.91 75.52 146.97
  Q 76.44 143.32 76.86 139.17
  Q 77.55 132.28 80.51 126.99
  Q 85.11 118.80 89.35 111.80
  Q 91.98 107.48 96.72 103.55
  Q 102.54 98.72 108.43 94.46
  C 111.80 92.03 115.44 90.19 119.38 88.81
  Q 129.86 85.13 139.75 81.54
  Q 143.54 80.16 157.01 78.48
  A 1.58 1.47 24.3 0 0 157.60 78.28
  Q 158.41 77.80 159.28 78.13
  Q 159.74 78.31 160.08 77.94
  Q 160.25 77.74 160.50 77.70
  C 166.77 76.63 172.63 75.71 179.22 75.28
  Q 188.72 74.67 198.23 73.83
  Q 201.42 73.55 213.33 73.91
  Q 217.72 74.04 220.81 75.27
  Q 224.47 76.73 227.08 79.48
  Q 230.44 83.02 229.82 89.28
  Q 229.43 93.19 227.94 95.53
  C 224.88 100.31 222.24 105.53 218.92 110.36
  Q 215.64 115.14 212.74 120.06
  C 212.16 121.05 211.92 122.04 211.63 123.13
  A 1.57 1.56 4.1 0 0 213.33 125.09
  Q 226.88 123.43 239.81 122.12
  Q 243.73 121.73 247.84 122.18
  C 251.21 122.55 254.74 121.60 257.91 122.34
  Q 262.01 123.29 267.70 125.79
  Q 271.13 127.31 273.05 129.93
  C 277.67 136.27 277.97 142.26 275.88 149.97
  Q 274.58 154.76 273.36 159.32
  Q 272.73 161.68 271.12 164.01
  Q 270.56 164.83 271.55 164.83
  Q 271.79 164.83 272.00 164.75
  Q 272.47 164.57 272.59 164.07
  Q 274.36 156.66 281.04 152.78
  Q 283.84 151.16 288.19 150.74
  C 292.98 150.27 297.71 149.36 302.21 151.44
  C 306.16 153.27 311.74 156.25 313.27 160.51
  A 0.37 0.36 -28.7 0 0 313.83 160.67
  C 315.99 159.03 318.94 157.87 321.72 158.42
  Q 328.14 159.72 330.60 165.42
  C 332.69 170.28 334.84 174.99 336.07 180.27
  Q 337.19 185.03 338.94 190.02
  Q 339.13 190.55 339.51 190.13
  Q 340.59 188.91 341.22 187.46
  C 343.16 182.89 345.21 178.60 346.81 173.97
  Q 348.91 167.93 352.30 164.32
  Q 354.49 162.00 358.01 162.04
  C 359.78 162.06 360.89 163.35 362.31 164.25
  Q 363.12 164.76 363.75 165.61
  Q 365.24 167.62 367.39 169.21
  Q 367.86 169.56 368.35 169.24
  C 370.88 167.61 373.47 166.03 376.27 164.96
  Q 379.29 163.80 382.30 162.52
  Q 385.22 161.29 388.36 160.38
  Q 400.42 156.88 410.64 152.64
  Q 412.80 151.74 414.40 153.44
  Q 414.76 153.82 414.86 154.30
  Q 415.43 157.09 412.76 158.06
  Q 400.81 162.36 391.43 167.74
  C 386.81 170.39 381.87 172.22 376.98 174.29
  Q 375.65 174.85 377.00 175.35
  Q 381.85 177.15 386.95 178.91
  Q 390.21 180.05 402.39 182.37
  Q 408.03 183.44 413.67 183.42
  Q 419.58 183.41 425.08 183.67
  Q 434.30 184.11 442.14 184.00
  Q 447.81 183.92 454.33 184.55
  Q 460.42 185.15 466.50 185.78
  Q 467.96 185.93 469.72 185.32
  Q 470.31 185.12 470.19 184.51
  Q 468.79 177.31 468.71 172.80
  Q 468.49 160.10 467.22 147.78
  Q 467.02 145.84 468.57 144.67
  Q 469.23 144.17 469.98 144.24
  Q 472.72 144.50 472.94 147.24
  Q 473.94 159.46 476.92 170.76
  Q 477.13 171.55 477.19 170.73
  Q 477.76 163.81 479.32 158.76
  Q 480.26 155.71 480.85 152.59
  C 481.60 148.64 482.43 144.40 485.29 141.42
  Q 491.45 134.97 498.53 141.28
  Q 501.22 143.69 503.34 146.06
  Q 505.08 148.01 506.93 151.37
  Q 510.39 157.68 513.89 163.13
  Q 515.04 164.93 515.44 162.83
  C 516.14 159.16 518.54 156.23 521.43 153.97
  C 527.56 149.16 535.00 154.97 538.56 160.01
  Q 541.66 164.41 545.53 168.80
  Q 545.89 169.22 546.44 169.11
  L 557.70 166.92
  Q 558.21 166.82 558.24 166.30
  C 558.71 155.80 565.99 149.53 576.18 154.74
  Q 582.21 157.83 587.99 160.89
  A 3.08 3.04 54.0 0 0 589.93 161.21
  Q 602.84 159.18 615.24 157.01
  Q 615.83 156.90 616.42 156.98
  Q 616.89 157.03 617.25 156.73
  Q 617.77 156.28 618.40 156.55
  Q 619.26 156.92 619.92 156.26
  A 0.99 0.97 36.5 0 1 621.08 156.10
  Q 621.79 156.48 622.31 155.83
  A 0.90 0.88 -64.8 0 1 623.17 155.51
  Q 623.64 155.60 623.99 155.92
  Q 624.46 156.34 624.71 155.77
  Q 624.89 155.38 625.27 155.20
  Q 625.76 154.96 626.20 155.27
  L 627.25 156.01
  Z
  M 716.05 141.00
  A 0.69 0.69 0.0 0 0 715.48 141.77
  Q 716.58 149.72 719.33 158.08
  C 720.32 161.08 720.81 164.08 721.41 167.18
  C 722.04 170.51 723.42 173.51 725.12 176.39
  A 0.38 0.38 0.0 0 0 725.78 176.38
  Q 731.79 165.60 735.82 153.56
  Q 738.59 145.29 741.23 136.94
  Q 741.44 136.29 740.78 136.48
  Q 740.04 136.69 739.38 136.82
  Q 727.82 139.14 716.05 141.00
  Z
  M 654.77 150.94
  Q 654.81 149.71 655.96 149.76
  Q 656.57 149.79 657.04 150.20
  Q 657.53 150.62 657.37 149.99
  Q 657.25 149.49 656.82 149.20
  Q 653.36 146.83 649.39 144.95
  C 646.12 143.40 642.92 143.86 639.52 143.27
  C 637.75 142.97 636.15 144.06 634.89 145.16
  A 1.18 1.14 -20.9 0 0 634.50 146.00
  Q 634.45 148.74 635.83 151.19
  Q 636.20 151.84 636.34 151.11
  L 637.16 146.86
  Q 637.63 144.45 640.08 144.25
  Q 640.48 144.22 640.85 144.39
  Q 643.15 145.40 642.75 147.88
  L 642.16 151.49
  A 0.62 0.62 0.0 0 0 642.71 152.20
  L 643.49 152.28
  Q 644.00 152.33 644.06 152.84
  Q 644.10 153.29 643.86 153.68
  Q 643.58 154.14 643.03 154.12
  Q 642.75 154.11 642.46 154.08
  A 0.67 0.66 -76.4 0 0 641.75 154.52
  Q 640.31 158.52 643.86 160.14
  Q 646.23 161.22 648.82 162.17
  C 652.59 163.55 657.39 160.77 659.11 157.40
  Q 659.87 155.92 660.74 154.57
  A 2.30 2.12 16.8 0 0 658.80 151.28
  Q 658.19 151.25 657.68 150.93
  Q 657.27 150.68 657.01 151.08
  Q 656.36 152.07 655.23 151.64
  A 0.72 0.71 -78.8 0 1 654.77 150.94
  Z
  M 495.94 179.93
  Q 496.77 180.19 497.38 179.58
  A 1.14 1.13 24.2 0 1 498.28 179.24
  L 498.66 179.26
  Q 499.07 179.29 499.47 179.19
  L 505.09 177.89
  Q 505.36 177.82 505.61 177.69
  Q 506.25 177.35 506.90 177.62
  Q 507.27 177.78 507.57 177.50
  Q 507.67 177.42 507.78 177.35
  Q 508.00 177.22 508.25 177.17
  Q 521.57 174.29 535.53 171.38
  Q 536.13 171.25 535.72 170.80
  Q 532.62 167.39 529.58 163.90
  Q 528.56 162.73 527.16 162.06
  A 0.96 0.95 31.7 0 0 525.99 162.33
  C 524.57 164.15 524.42 166.08 523.26 168.00
  Q 521.47 170.97 518.39 172.84
  Q 516.86 173.77 514.23 173.58
  Q 512.33 173.45 510.95 172.39
  Q 508.04 170.18 506.98 168.27
  Q 504.99 164.71 502.95 161.72
  Q 500.84 158.63 498.93 155.34
  Q 496.52 151.19 492.56 148.01
  A 1.08 1.07 -63.1 0 0 490.85 148.57
  Q 489.38 154.02 488.19 159.22
  C 486.78 165.29 486.41 171.38 485.25 177.56
  Q 484.84 179.74 484.74 181.99
  Q 484.70 182.82 485.38 182.33
  Q 486.51 181.52 487.90 181.83
  Q 488.49 181.96 488.94 181.56
  Q 489.68 180.91 490.68 181.22
  Q 491.28 181.40 491.72 180.96
  Q 492.42 180.27 493.42 180.53
  Q 494.06 180.70 494.60 180.32
  L 494.95 180.08
  Q 495.40 179.76 495.94 179.93
  Z
  M 673.52 149.99
  Q 673.51 149.73 673.34 149.92
  Q 670.83 152.71 673.20 154.96
  Q 673.80 155.53 673.76 154.70
  L 673.52 149.99
  Z
  M 302.36 161.93
  A 0.31 0.31 0.0 0 0 302.46 161.34
  L 297.25 158.77
  A 0.31 0.31 0.0 0 0 297.08 158.74
  L 286.25 159.67
  A 0.31 0.31 0.0 0 0 286.07 159.75
  L 282.06 163.22
  A 0.31 0.31 0.0 0 0 282.29 163.76
  L 302.36 161.93
  Z
  M 641.73 167.67
  A 0.34 0.34 0.0 0 0 641.27 167.92
  Q 640.43 172.20 642.00 177.89
  C 642.71 180.47 645.56 182.62 647.96 182.88
  Q 650.81 183.19 654.85 183.03
  C 659.37 182.86 662.83 180.75 666.47 178.52
  C 670.33 176.15 671.81 171.37 670.28 167.00
  Q 669.02 163.41 667.72 160.44
  A 0.58 0.58 0.0 0 0 666.69 160.39
  Q 662.09 168.48 652.75 170.21
  C 649.26 170.86 644.91 168.93 641.73 167.67
  Z
  M 572.65 163.69
  C 571.93 163.12 570.29 162.27 569.38 162.22
  Q 568.45 162.17 568.17 163.05
  L 567.73 164.43
  Q 567.53 165.06 568.18 164.96
  L 572.50 164.27
  Q 573.24 164.16 572.65 163.69
  Z
  M 298.27 167.03
  C 297.28 167.15 296.43 166.84 295.54 167.23
  Q 295.02 167.46 294.49 167.24
  Q 293.79 166.96 293.12 167.26
  Q 292.65 167.48 292.14 167.51
  L 287.49 167.84
  Q 286.79 167.89 286.89 168.59
  C 287.00 169.30 286.99 169.65 286.69 170.30
  Q 285.37 173.20 284.22 176.26
  Q 283.83 177.31 284.54 178.27
  Q 287.13 181.73 290.39 180.71
  C 293.78 179.65 296.84 175.70 299.61 173.44
  C 301.87 171.60 303.75 169.10 305.57 166.83
  Q 305.83 166.51 305.84 166.09
  Q 305.86 165.17 305.23 165.84
  C 304.72 166.38 304.07 166.66 303.33 166.68
  Q 300.74 166.75 298.27 167.03
  Z
  M 252.85 171.08
  Q 252.45 171.00 252.09 171.17
  Q 251.58 171.42 251.01 171.48
  Q 239.48 172.75 227.01 174.31
  Q 220.53 175.13 213.86 176.62
  Q 207.13 178.12 200.28 179.39
  Q 190.12 181.27 179.58 184.90
  Q 177.41 185.65 175.93 187.23
  A 0.59 0.58 -51.7 0 0 176.03 188.12
  C 180.21 190.84 183.86 192.73 189.03 193.66
  Q 193.50 194.47 198.34 195.15
  C 205.21 196.11 212.02 195.55 218.98 195.10
  Q 222.58 194.87 229.16 192.69
  C 236.02 190.42 241.44 188.17 247.01 183.71
  C 251.94 179.77 256.01 176.17 259.22 170.63
  A 0.22 0.21 10.9 0 0 259.00 170.31
  L 253.42 171.10
  Q 253.13 171.14 252.85 171.08
  Z
  M 558.30 171.58
  A 0.61 0.61 0.0 0 0 557.57 170.95
  L 549.10 172.56
  A 0.61 0.61 0.0 0 0 548.74 173.54
  L 556.60 183.32
  A 0.61 0.61 0.0 0 0 557.69 182.97
  L 558.30 171.58
  Z
  M 283.23 189.17
  Q 284.12 188.80 283.24 188.42
  L 281.77 187.79
  Q 281.26 187.58 281.13 188.11
  L 280.76 189.53
  Q 280.57 190.28 281.29 189.98
  L 283.23 189.17
  Z
  M 396.35 209.59
  Q 393.75 210.33 391.52 211.04
  C 380.98 214.44 369.96 217.64 359.91 221.96
  Q 352.10 225.33 344.71 228.47
  Q 344.55 228.54 344.72 228.55
  Q 348.00 228.64 351.05 227.93
  Q 369.27 223.73 387.57 218.63
  Q 396.21 216.22 405.19 213.47
  Q 413.49 210.92 422.27 207.75
  C 435.60 202.94 447.58 198.71 461.59 192.70
  Q 461.68 192.66 461.65 192.56
  L 461.55 192.28
  A 0.29 0.28 -15.8 0 0 461.20 192.09
  Q 429.91 200.08 396.35 209.59
  Z"
/>
<path fill="#000000" d="
  M 887.14 111.65
  Q 886.39 112.67 885.24 112.10
  A 1.15 1.15 0.0 0 1 884.79 110.43
  Q 885.36 109.56 886.41 109.72
  Q 886.95 109.80 887.44 109.57
  Q 888.94 108.88 890.43 108.36
  C 892.16 107.77 891.80 106.35 893.00 105.38
  Q 895.72 103.20 898.52 104.89
  C 903.98 108.17 898.44 116.39 893.05 112.15
  Q 892.65 111.83 892.14 111.78
  Q 890.47 111.62 888.90 111.94
  Q 888.51 112.02 888.12 111.93
  Q 887.88 111.88 887.75 111.68
  Q 887.46 111.22 887.14 111.65
  Z"
/>
<ellipse fill="#000000" cx="0.00" cy="0.00" transform="translate(883.07,111.53) rotate(87.4)" rx="1.31" ry="1.08"/>
<circle fill="#000000" cx="880.09" cy="112.13" r="1.15"/>
<path fill="#000000" d="
  M 878.09 112.74
  Q 877.94 113.92 876.78 113.79
  A 0.89 0.88 -88.9 0 1 876.00 112.97
  Q 875.92 111.64 876.89 111.53
  A 1.08 1.08 0.0 0 1 878.09 112.74
  Z"
/>
<path fill="#000000" d="
  M 875.08 112.92
  A 1.05 1.05 0.0 0 1 874.36 114.28
  Q 873.60 114.49 873.12 113.90
  A 1.14 1.14 0.0 0 1 873.83 112.05
  Q 874.73 111.91 875.08 112.92
  Z"
/>
<circle fill="#000000" cx="871.05" cy="113.68" r="1.10"/>
<circle fill="#000000" cx="868.24" cy="114.21" r="1.10"/>
<path fill="#000000" d="
  M 864.75 114.98
  Q 864.22 112.97 866.01 113.79
  A 1.07 1.06 89.0 0 1 866.54 114.31
  Q 866.95 115.15 866.18 115.58
  Q 865.07 116.21 864.75 114.98
  Z"
/>
<path fill="#000000" d="
  M 861.62 115.12
  Q 862.10 113.63 863.66 114.18
  Q 864.04 114.32 864.10 114.73
  Q 864.19 115.30 863.89 115.81
  Q 863.55 116.38 862.91 116.22
  L 861.97 115.97
  Q 861.42 115.83 861.20 116.36
  Q 861.15 116.49 861.05 116.59
  Q 860.76 116.89 860.39 116.70
  Q 860.00 116.50 859.83 116.03
  Q 859.59 115.36 859.35 116.03
  Q 858.88 117.30 857.46 116.96
  Q 856.77 116.79 856.26 117.29
  Q 855.75 117.79 855.20 117.30
  A 0.64 0.64 0.0 0 0 854.27 117.37
  Q 853.73 118.03 852.97 117.67
  Q 852.45 117.42 852.09 117.88
  Q 851.61 118.48 850.95 118.08
  Q 850.45 117.79 850.07 118.22
  Q 849.69 118.64 849.17 118.44
  Q 848.76 118.28 848.34 118.42
  Q 847.26 118.79 846.00 119.00
  Q 817.79 123.71 791.50 127.98
  Q 790.73 128.10 790.01 128.38
  Q 789.51 128.57 789.04 128.34
  Q 788.51 128.08 788.12 128.48
  Q 787.74 128.86 787.23 128.72
  Q 786.48 128.51 786.55 127.76
  A 0.82 0.81 75.6 0 1 786.91 127.14
  Q 787.63 126.63 788.04 127.06
  Q 788.54 127.59 788.95 126.97
  Q 789.49 126.13 790.21 126.82
  Q 790.49 127.07 790.70 126.76
  Q 791.26 125.93 792.08 126.46
  Q 792.56 126.77 792.87 126.28
  Q 793.18 125.79 793.72 125.90
  Q 794.04 125.96 794.37 125.91
  Q 795.70 125.71 797.06 125.47
  Q 822.81 120.95 853.31 115.91
  Q 853.77 115.83 854.20 115.93
  Q 854.76 116.07 855.03 115.53
  A 0.52 0.51 -43.0 0 1 855.97 115.56
  L 856.10 115.89
  Q 856.36 116.50 856.61 115.89
  Q 857.14 114.61 858.65 115.12
  Q 859.10 115.27 859.47 114.95
  L 859.78 114.68
  Q 860.22 114.28 860.74 114.57
  Q 861.04 114.74 861.14 115.11
  Q 861.36 115.93 861.62 115.12
  Z"
/>
<path fill="#000000" d="
  M 783.93 128.95
  Q 783.35 129.66 782.45 129.52
  Q 782.02 129.45 782.01 129.01
  L 781.99 128.27
  Q 781.98 127.75 782.50 127.74
  Q 783.00 127.73 783.49 127.89
  Q 784.00 128.06 784.39 127.70
  Q 784.98 127.15 785.79 127.35
  A 0.70 0.69 7.2 0 1 786.33 128.04
  Q 786.32 128.65 785.82 129.09
  Q 785.34 129.53 784.85 129.10
  L 784.61 128.89
  Q 784.23 128.56 783.93 128.95
  Z"
/>
<path fill="#000000" d="
  M 779.74 129.49
  Q 779.31 128.39 780.23 128.00
  Q 780.55 127.87 780.83 128.08
  Q 781.52 128.61 781.26 129.53
  Q 781.15 129.94 780.73 130.01
  Q 780.37 130.07 780.04 129.85
  A 0.74 0.74 0.0 0 1 779.74 129.49
  Z"
/>
<circle fill="#000000" cx="778.00" cy="129.50" r="1.00"/>
<path fill="#000000" d="
  M 776.13 129.52
  L 776.13 130.42
  A 0.63 0.62 15.0 0 1 775.19 130.96
  Q 774.42 130.51 774.49 129.63
  Q 774.54 129.04 775.14 128.99
  Q 775.51 128.96 775.85 129.10
  A 0.46 0.45 11.8 0 1 776.13 129.52
  Z"
/>
<ellipse fill="#000000" cx="0.00" cy="0.00" transform="translate(772.64,130.40) rotate(64.4)" rx="1.01" ry="0.86"/>
<path fill="#000000" d="
  M 770.46 131.65
  A 0.53 0.51 11.5 0 1 770.07 131.90
  Q 769.35 131.98 768.93 131.20
  A 0.85 0.85 0.0 0 1 769.56 129.95
  Q 769.89 129.91 770.25 130.04
  Q 770.82 130.25 770.74 130.85
  Q 770.68 131.26 770.46 131.65
  Z"
/>
<path fill="#000000" d="
  M 766.70 132.34
  A 0.69 0.68 -5.6 0 1 766.06 131.82
  Q 765.99 131.48 766.02 131.13
  Q 766.12 130.24 766.99 130.46
  Q 767.28 130.53 767.55 130.70
  Q 768.14 131.06 767.88 131.65
  Q 767.57 132.36 766.70 132.34
  Z"
/>
<path fill="#000000" d="
  M 764.83 131.46
  Q 764.99 132.35 764.31 132.85
  A 0.74 0.73 65.0 0 1 763.16 132.43
  L 762.97 131.71
  A 0.57 0.57 0.0 0 1 763.55 131.00
  L 764.34 131.03
  Q 764.75 131.05 764.83 131.46
  Z"
/>
<path fill="#000000" d="
  M 761.69 131.58
  Q 761.97 132.06 762.00 132.62
  Q 762.03 133.24 761.41 133.30
  Q 760.96 133.34 760.57 133.12
  Q 760.09 132.85 760.19 132.31
  Q 760.32 131.58 761.00 131.33
  A 0.59 0.57 64.2 0 1 761.69 131.58
  Z"
/>
<path fill="#000000" d="
  M 757.47 132.29
  L 758.24 131.90
  A 0.59 0.58 63.7 0 1 759.03 132.17
  Q 759.31 132.74 759.16 133.38
  A 0.57 0.57 0.0 0 1 758.62 133.82
  Q 757.51 133.83 757.23 132.83
  A 0.46 0.45 -21.3 0 1 757.47 132.29
  Z"
/>
<path fill="#000000" d="
  M 755.86 132.32
  Q 756.41 132.61 756.53 133.19
  Q 756.65 133.78 756.22 134.12
  A 0.86 0.86 0.0 0 1 754.86 133.69
  Q 754.66 132.98 755.12 132.46
  Q 755.43 132.10 755.86 132.32
  Z"
/>
<circle fill="#000000" cx="752.97" cy="133.75" r="1.01"/>
<path fill="#000000" d="
  M 654.41 151.31
  A 0.88 0.87 18.7 0 1 653.01 152.00
  Q 652.78 151.82 652.61 151.56
  A 0.90 0.90 0.0 0 1 653.03 150.22
  Q 654.44 149.66 654.41 151.31
  Z"
/>
<ellipse fill="#000000" cx="0.00" cy="0.00" transform="translate(650.99,151.63) rotate(-41.5)" rx="1.14" ry="1.07"/>
<path fill="#000000" d="
  M 646.54 152.99
  L 646.34 153.47
  Q 646.08 154.09 645.50 153.75
  Q 644.69 153.26 644.66 152.31
  Q 644.64 151.64 645.31 151.58
  Q 645.85 151.52 646.32 151.83
  Q 646.66 152.05 646.99 151.80
  L 647.83 151.16
  A 0.93 0.93 0.0 0 1 649.30 151.72
  Q 649.50 152.71 648.89 153.06
  Q 648.38 153.35 647.91 153.01
  L 647.51 152.72
  Q 646.85 152.23 646.54 152.99
  Z"
/>
</svg>
